<svg version="1.1" xmlns="http://www.w3.org/2000/svg" xmlns:xlink="http://www.w3.org/1999/xlink" width="67.00744" height="102.0732" viewBox="0,0,67.00744,102.0732"><g transform="translate(-205.81051,-106.75502)"><g data-paper-data="{&quot;isPaintingLayer&quot;:true}" fill-rule="nonzero" stroke-linejoin="miter" stroke-miterlimit="10" stroke-dasharray="" stroke-dashoffset="0" style="mix-blend-mode: normal"><path d="M207.09512,179.58823c-2.35479,-17.79412 10.16126,-34.12804 27.95538,-36.48283c17.79411,-2.35479 34.12804,10.16126 36.48283,27.95538c2.35479,17.79412 -10.16126,34.12804 -27.95538,36.48283c-17.79412,2.35479 -34.12804,-10.16126 -36.48283,-27.95537z" fill="#00aeff" stroke="#000000" stroke-width="2" stroke-linecap="butt"/><path d="M221.17013,180.02735c-1.65654,-12.51773 7.14819,-24.00823 19.66592,-25.66477c12.51773,-1.65654 24.00824,7.14819 25.66477,19.66592c1.65654,12.51773 -7.14819,24.00823 -19.66592,25.66477c-12.51773,1.65654 -24.00824,-7.14819 -25.66478,-19.66592z" fill="#ffffff" stroke="#000000" stroke-width="0" stroke-linecap="butt"/><path d="M239.61703,170.29926c-0.18114,-1.36877 0.78163,-2.62523 2.15041,-2.80637c1.36877,-0.18114 2.62524,0.78163 2.80638,2.15041c0.18114,1.36877 -0.78164,2.62524 -2.15042,2.80638c-1.36877,0.18114 -2.62523,-0.78164 -2.80637,-2.15042z" fill="#000000" stroke="none" stroke-width="0.5" stroke-linecap="butt"/><path d="M253.03982,170.0185c-0.18114,-1.36877 0.78164,-2.62523 2.15042,-2.80637c1.36877,-0.18114 2.62523,0.78164 2.80637,2.15042c0.18114,1.36877 -0.78164,2.62523 -2.15041,2.80637c-1.36877,0.18114 -2.62523,-0.78164 -2.80637,-2.15042z" fill="#000000" stroke="none" stroke-width="0.5" stroke-linecap="butt"/><path d="M245.79221,178.78701l19.32319,4.51313l-19.92253,4.73285" fill="#ff9400" stroke="#000000" stroke-width="2" stroke-linecap="round"/><g fill="#000000" stroke="none" stroke-width="0" stroke-linecap="butt"><path d="M269.91104,150.67393c-0.83695,7.047 -14.38715,11.23099 -30.2652,9.3452c-15.87805,-1.88579 -28.07127,-9.12725 -27.23433,-16.17425c0.83695,-7.047 14.38715,-11.23099 30.2652,-9.3452c15.87805,1.88579 28.07127,9.12726 27.23433,16.17425z"/><path d="M222.86668,141.31934l4.1051,-34.56432l39.40979,4.68058l-4.1051,34.56433z"/></g></g></g></svg>