<svg version="1.1" xmlns="http://www.w3.org/2000/svg" xmlns:xlink="http://www.w3.org/1999/xlink" width="294.56945" height="188.33041" viewBox="0,0,294.56945,188.33041"><g transform="translate(-92.71527,-106.75502)"><g data-paper-data="{&quot;isPaintingLayer&quot;:true}" fill-rule="nonzero" stroke-linejoin="miter" stroke-miterlimit="10" stroke-dasharray="" stroke-dashoffset="0" style="mix-blend-mode: normal"><path d="M162.74968,262.27494c1.67063,1.06782 2.99679,2.53608 3.9785,4.40477c0.98171,1.86869 1.47256,4.03878 1.47256,6.51027c0,2.46289 -0.49085,4.63729 -1.47256,6.5232c-0.98171,1.88591 -2.29496,3.36278 -3.93975,4.4306c-1.63618,1.06782 -3.47904,1.60173 -5.52856,1.60173c-1.20561,0 -2.33371,-0.19376 -3.38431,-0.58127c-1.0506,-0.39613 -1.97633,-0.89559 -2.7772,-1.4984c-0.42004,-0.31616 -0.79033,-0.6335 -1.11088,-0.95203v0.28033c0,0.78364 -0.25834,1.43812 -0.77503,1.96342c-0.50808,0.5253 -1.15394,0.78795 -1.93758,0.78795c-0.78364,0 -1.43381,-0.25404 -1.9505,-0.76212c-0.50808,-0.51669 -0.76212,-1.17977 -0.76212,-1.98925v-28.37912c0,-0.78364 0.25404,-1.43812 0.76212,-1.96342c0.51669,-0.53391 1.16686,-0.80087 1.9505,-0.80087c0.78364,0 1.4295,0.26695 1.93758,0.80087c0.51669,0.5253 0.77503,1.17977 0.77503,1.96342v9.48375c0.40715,-0.50381 0.93676,-1.00411 1.58882,-1.50092c0.72336,-0.55975 1.55867,-1.02046 2.50594,-1.38214c0.94726,-0.36168 1.94619,-0.54252 2.99679,-0.54252c2.10981,0 4.00003,0.53391 5.67065,1.60173zM156.40733,265.63341c-1.32617,0 -2.48871,0.33154 -3.48765,0.99462c-0.99032,0.66308 -1.76535,1.56298 -2.3251,2.6997c-0.55113,1.1281 -0.8267,2.41552 -0.8267,3.86224c0,1.41229 0.27557,2.69971 0.8267,3.86226c0.55975,1.15394 1.33478,2.06245 2.3251,2.72553c0.99893,0.66308 2.16148,0.99462 3.48765,0.99462c1.32617,0 2.4758,-0.33154 3.44889,-0.99462c0.98171,-0.66308 1.75243,-1.57159 2.31218,-2.72553c0.55975,-1.16255 0.83962,-2.44997 0.83962,-3.86226c0,-1.44673 -0.27987,-2.73414 -0.83962,-3.86224c-0.55975,-1.13671 -1.33047,-2.03661 -2.31218,-2.6997c-0.9731,-0.66308 -2.12273,-0.99462 -3.44889,-0.99462z" fill="#00aeff" stroke="#00a9eb" stroke-width="1.5" stroke-linecap="butt"/><path d="M191.12549,262.27494c1.67063,1.06782 2.99679,2.53608 3.9785,4.40477c0.98171,1.86869 1.47256,4.03878 1.47256,6.51027c0,2.46289 -0.49085,4.63729 -1.47256,6.5232c-0.98171,1.88591 -2.29496,3.36278 -3.93975,4.4306c-1.63618,1.06782 -3.47904,1.60173 -5.52856,1.60173c-1.20561,0 -2.33371,-0.19376 -3.38431,-0.58127c-1.0506,-0.39613 -1.97633,-0.89559 -2.7772,-1.4984c-0.42004,-0.31616 -0.79033,-0.6335 -1.11088,-0.95203v0.28033c0,0.78364 -0.25834,1.43812 -0.77503,1.96342c-0.50808,0.5253 -1.15394,0.78795 -1.93758,0.78795c-0.78364,0 -1.43381,-0.25404 -1.9505,-0.76212c-0.50808,-0.51669 -0.76212,-1.17977 -0.76212,-1.98925v-28.37912c0,-0.78364 0.25404,-1.43812 0.76212,-1.96342c0.51669,-0.53391 1.16686,-0.80087 1.9505,-0.80087c0.78364,0 1.4295,0.26695 1.93758,0.80087c0.51669,0.5253 0.77503,1.17977 0.77503,1.96342l0,9.48375c0.40715,-0.50381 0.93676,-1.00411 1.58882,-1.50092c0.72336,-0.55975 1.55867,-1.02046 2.50594,-1.38214c0.94726,-0.36168 1.94619,-0.54252 2.99679,-0.54252c2.10981,0 4.00003,0.53391 5.67065,1.60173zM184.78314,265.63341c-1.32617,0 -2.48871,0.33154 -3.48765,0.99462c-0.99032,0.66308 -1.76535,1.56298 -2.3251,2.6997c-0.55113,1.1281 -0.8267,2.41552 -0.8267,3.86224c0,1.41229 0.27557,2.69971 0.8267,3.86226c0.55975,1.15394 1.33478,2.06245 2.3251,2.72553c0.99893,0.66308 2.16148,0.99462 3.48765,0.99462c1.32617,0 2.4758,-0.33154 3.44889,-0.99462c0.98171,-0.66308 1.75243,-1.57159 2.31218,-2.72553c0.55975,-1.16255 0.83962,-2.44997 0.83962,-3.86226c0,-1.44673 -0.27987,-2.73414 -0.83962,-3.86224c-0.55975,-1.13671 -1.33047,-2.03661 -2.31218,-2.6997c-0.9731,-0.66308 -2.12273,-0.99462 -3.44889,-0.99462z" fill="#00aeff" stroke="#00a9eb" stroke-width="1.5" stroke-linecap="butt"/><path d="M294.29653,261.44824c0.51669,0.50808 0.77503,1.16686 0.77503,1.97633v19.11748c0,0.78364 -0.25834,1.43812 -0.77503,1.96342c-0.50808,0.5253 -1.15394,0.78795 -1.93758,0.78795c-0.77503,0 -1.42089,-0.26265 -1.93758,-0.78795c-0.49741,-0.51427 -0.75134,-1.15236 -0.76178,-1.91424c-0.36994,0.41027 -0.82215,0.81584 -1.35664,1.21671c-0.72336,0.54252 -1.5759,1.00324 -2.55761,1.38214c-0.98171,0.37029 -2.04523,0.55544 -3.19055,0.55544c-2.07536,0 -3.95697,-0.53391 -5.64482,-1.60173c-1.68785,-1.06782 -3.02263,-2.54469 -4.00433,-4.4306c-0.9731,-1.88591 -1.45964,-4.0474 -1.45964,-6.48445c0,-2.47149 0.48655,-4.64589 1.45964,-6.52319c0.98171,-1.88591 2.29926,-3.36278 3.95267,-4.4306c1.66201,-1.06782 3.50056,-1.60173 5.51565,-1.60173c1.30033,0 2.49302,0.19807 3.57807,0.59419c1.08505,0.38752 2.02369,0.88268 2.81595,1.48548c0.3273,0.24284 0.6244,0.48783 0.89129,0.73498v-0.06328c0,-0.78364 0.25404,-1.43812 0.76212,-1.96342c0.51669,-0.5253 1.16255,-0.78795 1.93758,-0.78795c0.78364,0 1.4295,0.25834 1.93758,0.77503zM283.23941,280.77239c1.32617,0 2.48441,-0.33154 3.47473,-0.99462c0.99893,-0.66308 1.77396,-1.56729 2.3251,-2.71261c0.55975,-1.14532 0.83962,-2.42413 0.83962,-3.83642c0,-1.44673 -0.27987,-2.74275 -0.83962,-3.88808c-0.55113,-1.14532 -1.32617,-2.04953 -2.3251,-2.71261c-0.99032,-0.66308 -2.14856,-0.99462 -3.47473,-0.99462c-1.30033,0 -2.44566,0.33154 -3.43598,0.99462c-0.99032,0.66308 -1.76535,1.56729 -2.3251,2.71261c-0.55975,1.14532 -0.83962,2.44135 -0.83962,3.88808c0,1.41229 0.27987,2.6911 0.83962,3.83642c0.55975,1.14532 1.33478,2.04953 2.3251,2.71261c0.99032,0.66308 2.13565,0.99462 3.43598,0.99462z" fill="#ffffff" stroke="#ebebeb" stroke-width="1.5" stroke-linecap="butt"/><path d="M313.6432,260.6732c2.41121,0 4.18948,0.58127 5.33481,1.74382c0.86748,0.874 1.51018,1.94314 1.92811,3.20741c0.36154,-0.65373 0.88999,-1.34827 1.58537,-2.08361c0.75781,-0.80087 1.67063,-1.47687 2.73845,-2.028c1.07644,-0.55975 2.27774,-0.83962 3.6039,-0.83962c2.16148,0 3.80627,0.46502 4.93437,1.39506c1.13671,0.93004 1.91605,2.1744 2.33801,3.73307c0.42196,1.55006 0.63294,3.27236 0.63294,5.16688v11.57383c0,0.78364 -0.25834,1.43812 -0.77503,1.96342c-0.50808,0.5253 -1.15394,0.78795 -1.93758,0.78795c-0.78364,0 -1.43381,-0.26265 -1.9505,-0.78795c-0.50808,-0.5253 -0.76212,-1.17977 -0.76212,-1.96342v-11.57383c0,-0.99032 -0.12056,-1.88591 -0.36168,-2.68678c-0.24112,-0.80087 -0.6803,-1.44242 -1.31756,-1.92466c-0.62864,-0.48224 -1.52854,-0.72336 -2.6997,-0.72336c-1.14532,0 -2.12703,0.24112 -2.94512,0.72336c-0.80948,0.48224 -1.42089,1.1238 -1.83424,1.92466c-0.40474,0.80087 -0.60711,1.69646 -0.60711,2.68678v11.57383c0,0.78364 -0.25404,1.43812 -0.76212,1.96342c-0.50808,0.5253 -1.15394,0.78795 -1.93758,0.78795c-0.78364,0 -1.43381,-0.26265 -1.9505,-0.78795c-0.50808,-0.5253 -0.76212,-1.17977 -0.76212,-1.96342v-11.57383c0,-0.99032 -0.12056,-1.88591 -0.36168,-2.68678c-0.24112,-0.80087 -0.6803,-1.44242 -1.31756,-1.92466c-0.62864,-0.48224 -1.53284,-0.72336 -2.71261,-0.72336c-1.14532,0 -2.12273,0.24112 -2.93221,0.72336c-0.80948,0.48224 -1.42089,1.1238 -1.83424,1.92466c-0.40474,0.80087 -0.60711,1.69646 -0.60711,2.68678v11.57383c0,0.78364 -0.25834,1.43812 -0.77503,1.96342c-0.50808,0.5253 -1.15394,0.78795 -1.93758,0.78795c-0.78364,0 -1.43381,-0.26265 -1.9505,-0.78795c-0.50808,-0.5253 -0.76212,-1.17977 -0.76212,-1.96342v-18.66538c0,-0.78364 0.25404,-1.43812 0.76212,-1.96342c0.51669,-0.5253 1.16686,-0.78795 1.9505,-0.78795c0.78364,0 1.4295,0.26265 1.93758,0.78795c0.51669,0.5253 0.77503,1.17977 0.77503,1.96342v0.73698c0.1384,-0.19006 0.2891,-0.38405 0.4521,-0.58197c0.48224,-0.58558 1.06782,-1.13241 1.75674,-1.64049c0.69753,-0.51669 1.46825,-0.93004 2.31218,-1.24005c0.84393,-0.31862 1.76105,-0.47794 2.75137,-0.47794z" fill="#ffffff" stroke="#ebebeb" stroke-width="1.5" stroke-linecap="butt"/><path d="M255.86023,285.74552c-2.29065,0 -4.4306,-0.42196 -6.41985,-1.26589c-1.98925,-0.84393 -3.73738,-2.01078 -5.24439,-3.50056c-1.50701,-1.48979 -2.69109,-3.21208 -3.55223,-5.16688c-0.85254,-1.96342 -1.2788,-4.07324 -1.2788,-6.32944c0,-2.26482 0.42627,-4.37463 1.2788,-6.32943c0.86115,-1.95481 2.04523,-3.6771 3.55223,-5.16688c1.50701,-1.4984 3.25514,-2.66955 5.24439,-3.51348c1.98925,-0.84393 4.1292,-1.26589 6.41985,-1.26589c1.41228,0 2.78151,0.1507 4.10767,0.4521c1.32617,0.3014 2.54469,0.75351 3.65557,1.35631c0.45641,0.24112 0.79656,0.56836 1.02046,0.98171c0.2239,0.40474 0.33585,0.81809 0.33585,1.24005c0,0.72336 -0.24112,1.37353 -0.72336,1.9505c-0.48224,0.56836 -1.09796,0.85254 -1.84716,0.85254c-0.24112,0 -0.49085,-0.03014 -0.7492,-0.09042c-0.25834,-0.06028 -0.50808,-0.1507 -0.7492,-0.27126c-0.7492,-0.33585 -1.54576,-0.59419 -2.38968,-0.77503c-0.84393,-0.18084 -1.73091,-0.27126 -2.66094,-0.27126c-1.96342,0 -3.7503,0.49085 -5.36064,1.47256c-1.61034,0.98171 -2.88915,2.29496 -3.83641,3.93975c-0.94726,1.63618 -1.42089,3.44889 -1.42089,5.43814c0,1.95481 0.47363,3.76321 1.42089,5.42523c0.94726,1.65341 2.22607,2.97097 3.83641,3.95268c1.61034,0.9731 3.39723,1.45964 5.36064,1.45964c0.9042,0 1.89452,-0.09042 2.97096,-0.27126c0.88134,-0.14689 1.63484,-0.33355 2.26051,-0.55998v-5.84697h-4.23684c-0.78364,0 -1.44242,-0.25404 -1.97633,-0.76212c-0.5253,-0.51669 -0.78795,-1.16686 -0.78795,-1.9505c0,-0.78364 0.26265,-1.4295 0.78795,-1.93758c0.53391,-0.51669 1.19269,-0.77503 1.97633,-0.77503h7.40156c0.78364,0 1.4295,0.26265 1.93758,0.78795c0.51669,0.5253 0.77503,1.17977 0.77503,1.96342v9.58458c0,0.6028 -0.14209,1.10227 -0.42627,1.4984c-0.28418,0.38752 -0.60711,0.70184 -0.96879,0.94296c-1.38645,0.84393 -2.90206,1.51562 -4.54686,2.01508c-1.63618,0.49085 -3.35847,0.73628 -5.16688,0.73628z" fill="#ffffff" stroke="#ebebeb" stroke-width="1.5" stroke-linecap="butt"/><path d="M121.80445,284.14378c-1.88591,-1.06782 -3.33264,-2.51886 -4.34018,-4.3531c-1.00754,-1.84285 -1.51131,-3.92253 -1.51131,-6.23902c0,-2.71261 0.54683,-5.02479 1.64049,-6.93654c1.10227,-1.92036 2.54038,-3.38862 4.31435,-4.40477c1.78257,-1.02477 3.66849,-1.53715 5.65774,-1.53715c1.53284,0 2.98387,0.31862 4.3531,0.95587c1.37783,0.62864 2.59205,1.49409 3.64265,2.59636c1.0506,1.09366 1.88591,2.36385 2.50594,3.81058c0.62003,1.44673 0.93004,2.98387 0.93004,4.61144c-0.03444,0.72336 -0.32293,1.30895 -0.86545,1.75674c-0.54252,0.4478 -1.17116,0.67171 -1.88591,0.67171h-14.92548c0.16502,0.83206 0.44693,1.58125 0.84572,2.24759c0.6803,1.1281 1.55437,1.98494 2.62219,2.57052c1.06782,0.58558 2.20454,0.87837 3.41014,0.87837c1.11088,0 1.99786,-0.09042 2.66094,-0.27126c0.66308,-0.18084 1.19699,-0.39613 1.60173,-0.64586c0.41335,-0.25834 0.78364,-0.47794 1.11088,-0.65878c0.54252,-0.27557 1.0549,-0.41335 1.53715,-0.41335c0.66308,0 1.20991,0.2282 1.64049,0.68461c0.43919,0.4478 0.65878,0.9731 0.65878,1.5759c0,0.81809 -0.41766,1.55867 -1.25297,2.22176c-0.78364,0.66308 -1.88591,1.24436 -3.3068,1.74382c-1.41228,0.49085 -2.87193,0.73628 -4.37893,0.73628c-2.55761,0 -4.77937,-0.53391 -6.66528,-1.60173zM133.21035,270.24486c-0.06028,-0.86976 -0.37029,-1.6491 -0.93004,-2.33801c-0.55113,-0.69753 -1.24436,-1.24866 -2.07967,-1.6534c-0.8267,-0.41335 -1.70507,-0.62003 -2.63511,-0.62003c-0.9042,0 -1.74813,0.12056 -2.53177,0.36168c-0.78364,0.24112 -1.46395,0.65017 -2.04092,1.22713c-0.56836,0.56836 -1.02046,1.33478 -1.35631,2.29926c-0.10867,0.32028 -0.19929,0.66904 -0.27187,1.04629h11.84569z" fill="#00aeff" stroke="#00a9eb" stroke-width="1.5" stroke-linecap="butt"/><path d="M347.33332,284.14378c-1.88591,-1.06782 -3.33264,-2.51886 -4.34018,-4.3531c-1.00754,-1.84285 -1.51131,-3.92253 -1.51131,-6.23902c0,-2.71261 0.54683,-5.02479 1.64049,-6.93654c1.10227,-1.92036 2.54038,-3.38862 4.31435,-4.40477c1.78257,-1.02477 3.66849,-1.53715 5.65774,-1.53715c1.53284,0 2.98387,0.31862 4.3531,0.95587c1.37783,0.62864 2.59205,1.49409 3.64265,2.59636c1.0506,1.09366 1.88591,2.36385 2.50594,3.81058c0.62003,1.44673 0.93004,2.98387 0.93004,4.61144c-0.03444,0.72336 -0.32293,1.30895 -0.86545,1.75674c-0.54252,0.4478 -1.17116,0.67171 -1.88591,0.67171h-14.92548c0.16502,0.83206 0.44693,1.58125 0.84572,2.24759c0.6803,1.1281 1.55437,1.98494 2.62219,2.57052c1.06782,0.58558 2.20454,0.87837 3.41014,0.87837c1.11088,0 1.99786,-0.09042 2.66094,-0.27126c0.66308,-0.18084 1.19699,-0.39613 1.60173,-0.64586c0.41335,-0.25834 0.78364,-0.47794 1.11088,-0.65878c0.54252,-0.27557 1.0549,-0.41335 1.53715,-0.41335c0.66308,0 1.20991,0.2282 1.64049,0.68461c0.43919,0.4478 0.65878,0.9731 0.65878,1.5759c0,0.81809 -0.41766,1.55867 -1.25297,2.22176c-0.78364,0.66308 -1.88591,1.24436 -3.3068,1.74382c-1.41228,0.49085 -2.87193,0.73628 -4.37893,0.73628c-2.55761,0 -4.77937,-0.53391 -6.66528,-1.60173zM358.73922,270.24486c-0.06028,-0.86976 -0.37029,-1.6491 -0.93004,-2.33801c-0.55113,-0.69753 -1.24436,-1.24866 -2.07967,-1.6534c-0.8267,-0.41335 -1.70507,-0.62003 -2.63511,-0.62003c-0.9042,0 -1.74813,0.12056 -2.53177,0.36168c-0.78364,0.24112 -1.46395,0.65017 -2.04092,1.22713c-0.56836,0.56836 -1.02046,1.33478 -1.35631,2.29926c-0.10867,0.32028 -0.19929,0.66904 -0.27187,1.04629h11.84569z" fill="#ffffff" stroke="#ebebeb" stroke-width="1.5" stroke-linecap="butt"/><path d="M219.25586,261.12531c0.78364,0 1.4295,0.26265 1.93758,0.78795c0.51669,0.5253 0.77503,1.17977 0.77503,1.96342v19.2079c0,2.76428 -0.521,4.96881 -1.56298,6.61359c-1.03338,1.64479 -2.42413,2.82887 -4.17226,3.55223c-1.74813,0.72336 -3.70724,1.08505 -5.87733,1.08505c-0.96448,0 -1.98925,-0.0775 -3.0743,-0.23251c-1.08505,-0.1464 -1.97203,-0.37029 -2.66094,-0.67169c-0.9042,-0.39613 -1.53284,-0.88698 -1.88591,-1.47256c-0.34446,-0.58558 -0.40904,-1.20991 -0.19376,-1.87299c0.26695,-0.87837 0.70184,-1.47687 1.30464,-1.79549c0.6028,-0.31001 1.23574,-0.34446 1.89883,-0.10334c0.48224,0.1464 1.11519,0.37891 1.89883,0.69753c0.78364,0.31862 1.68785,0.47794 2.71261,0.47794c1.38645,0 2.53608,-0.18945 3.44889,-0.56836c0.92143,-0.37891 1.61465,-1.01184 2.07967,-1.8988c0.47363,-0.88698 0.71045,-2.09689 0.71045,-3.62974v-0.48282c-0.29919,0.37027 -0.62642,0.70344 -0.98171,0.99951c-0.76642,0.64586 -1.67924,1.13671 -2.73845,1.47256c-1.0506,0.32724 -2.2519,0.49085 -3.6039,0.49085c-1.59312,0 -2.98818,-0.36599 -4.18518,-1.09796c-1.18838,-0.74059 -2.11411,-1.76535 -2.7772,-3.0743c-0.66308,-1.31756 -0.99462,-2.82026 -0.99462,-4.50811v-13.18848c0,-0.78364 0.25404,-1.43812 0.76212,-1.96342c0.51669,-0.5253 1.16686,-0.78795 1.9505,-0.78795c0.78364,0 1.4295,0.26265 1.93758,0.78795c0.51669,0.5253 0.77503,1.17977 0.77503,1.96342v11.56091c0,1.96342 0.43057,3.34556 1.29172,4.14642c0.86115,0.79226 2.05814,1.18838 3.59098,1.18838c1.0506,0 1.93758,-0.20237 2.66094,-0.60711c0.72336,-0.40474 1.2788,-1.00754 1.66632,-1.80841c0.39613,-0.80087 0.59419,-1.77396 0.59419,-2.91929v-11.56091c0,-0.78364 0.25404,-1.43812 0.76212,-1.96342c0.51669,-0.5253 1.16686,-0.78795 1.9505,-0.78795z" fill="#00aeff" stroke="#00a9eb" stroke-width="1.5" stroke-linecap="butt"/><path d="M106.20164,285.29341c-0.84393,0 -1.53715,-0.26265 -2.07967,-0.78795c-0.53391,-0.5253 -0.80087,-1.17977 -0.80087,-1.96342v-23.67725h-7.10446c-0.78364,0 -1.43812,-0.24112 -1.96342,-0.72336c-0.5253,-0.48224 -0.78795,-1.11519 -0.78795,-1.89883c0,-0.78364 0.26265,-1.40798 0.78795,-1.87299c0.5253,-0.47363 1.17977,-0.71045 1.96342,-0.71045h20.06042c0.78364,0 1.43812,0.24112 1.96342,0.72336c0.53391,0.48224 0.80087,1.11519 0.80087,1.89883c0,0.78364 -0.26695,1.41228 -0.80087,1.88591c-0.5253,0.46502 -1.17977,0.69753 -1.96342,0.69753h-7.09155v23.67725c0,0.78364 -0.27987,1.43812 -0.83962,1.96342c-0.55113,0.5253 -1.26589,0.78795 -2.14426,0.78795z" fill="#00aeff" stroke="#00a9eb" stroke-width="1.5" stroke-linecap="butt"/><path d="M367.86936,281.54742c-0.3014,-0.42196 -0.43919,-0.96448 -0.41335,-1.62757c0.03444,-0.66308 0.42627,-1.23574 1.17547,-1.71799c0.48224,-0.3014 0.99462,-0.43057 1.53715,-0.38752c0.54252,0.04306 1.07213,0.32293 1.58882,0.83962c0.86976,0.86976 1.78688,1.54576 2.75137,2.028c0.96448,0.48224 2.17009,0.72336 3.61682,0.72336c0.4478,-0.02583 0.94296,-0.09042 1.48548,-0.19376c0.54252,-0.11195 1.01615,-0.35307 1.42089,-0.72336c0.41335,-0.37891 0.62003,-0.96018 0.62003,-1.74382c0,-0.66308 -0.2282,-1.18838 -0.68461,-1.5759c-0.4478,-0.39613 -1.04199,-0.72767 -1.78257,-0.99462c-0.74059,-0.27557 -1.55867,-0.53391 -2.45427,-0.77503c-0.93865,-0.27558 -1.89883,-0.57698 -2.88054,-0.90422c-0.9731,-0.33585 -1.86869,-0.76642 -2.68678,-1.29172c-0.80948,-0.5253 -1.47256,-1.22283 -1.98925,-2.09259c-0.50808,-0.87837 -0.76212,-1.98064 -0.76212,-3.3068c0,-1.50701 0.42196,-2.78581 1.26589,-3.83641c0.84393,-1.0506 1.93327,-1.86008 3.26805,-2.42843c1.34339,-0.57697 2.75567,-0.86545 4.23684,-0.86545c0.93004,0 1.90744,0.11195 2.93221,0.33585c1.02477,0.2239 2.00217,0.58558 2.93221,1.08505c0.93865,0.49085 1.7223,1.14532 2.35093,1.96342c0.33585,0.4478 0.53391,0.99032 0.59419,1.62757c0.06028,0.62864 -0.2282,1.2013 -0.86545,1.71799c-0.4478,0.36168 -0.9731,0.521 -1.5759,0.47794c-0.6028,-0.05167 -1.10227,-0.25834 -1.4984,-0.62003c-0.50808,-0.66308 -1.19269,-1.18838 -2.05384,-1.5759c-0.86115,-0.39613 -1.84716,-0.59419 -2.95804,-0.59419c-0.4478,0 -0.93865,0.05598 -1.47256,0.16792c-0.5253,0.10334 -0.98601,0.32724 -1.38214,0.67169c-0.38752,0.34446 -0.58127,0.89559 -0.58127,1.6534c0,0.68892 0.2239,1.24005 0.67169,1.6534c0.45641,0.40474 1.06782,0.73628 1.83424,0.99462c0.77503,0.24973 1.59743,0.49516 2.46719,0.73628c0.9042,0.24112 1.82133,0.52961 2.75137,0.86545c0.93865,0.32724 1.7998,0.76212 2.58344,1.30464c0.78364,0.54252 1.41659,1.24436 1.89883,2.10552c0.48224,0.85254 0.72336,1.94189 0.72336,3.26805c0,1.54145 -0.4521,2.8547 -1.35631,3.93975c-0.9042,1.08505 -2.03661,1.90744 -3.39723,2.46719c-1.352,0.55113 -2.73414,0.8267 -4.14642,0.8267c-1.78257,0 -3.56515,-0.30571 -5.34772,-0.91712c-1.77396,-0.62003 -3.24653,-1.71368 -4.41768,-3.28097z" fill="#ffffff" stroke="#ebebeb" stroke-width="1.5" stroke-linecap="butt"/><path d="M205.65256,251.26814l8.40153,-1.97683l8.40153,-49.42078l13.34361,-1.48262l17.79148,0.98842l10.36678,49.39182l9.38995,1.97683" fill="none" stroke="#000000" stroke-width="2" stroke-linecap="round"/><path d="M207.09512,179.58823c-2.35479,-17.79412 10.16126,-34.12804 27.95538,-36.48283c17.79411,-2.35479 34.12804,10.16126 36.48283,27.95538c2.35479,17.79412 -10.16126,34.12804 -27.95538,36.48283c-17.79412,2.35479 -34.12804,-10.16126 -36.48283,-27.95537z" fill="#00aeff" stroke="#000000" stroke-width="2" stroke-linecap="butt"/><path d="M221.17013,180.02735c-1.65654,-12.51773 7.14819,-24.00823 19.66592,-25.66477c12.51773,-1.65654 24.00824,7.14819 25.66477,19.66592c1.65654,12.51773 -7.14819,24.00823 -19.66592,25.66477c-12.51773,1.65654 -24.00824,-7.14819 -25.66478,-19.66592z" fill="#ffffff" stroke="#000000" stroke-width="0" stroke-linecap="butt"/><path d="M239.61703,170.29926c-0.18114,-1.36877 0.78163,-2.62523 2.15041,-2.80637c1.36877,-0.18114 2.62524,0.78163 2.80638,2.15041c0.18114,1.36877 -0.78164,2.62524 -2.15042,2.80638c-1.36877,0.18114 -2.62523,-0.78164 -2.80637,-2.15042z" fill="#000000" stroke="none" stroke-width="0.5" stroke-linecap="butt"/><path d="M253.03982,170.0185c-0.18114,-1.36877 0.78164,-2.62523 2.15042,-2.80637c1.36877,-0.18114 2.62523,0.78164 2.80637,2.15042c0.18114,1.36877 -0.78164,2.62523 -2.15041,2.80637c-1.36877,0.18114 -2.62523,-0.78164 -2.80637,-2.15042z" fill="#000000" stroke="none" stroke-width="0.5" stroke-linecap="butt"/><path d="M245.79221,178.78701l19.32319,4.51313l-19.92253,4.73285" fill="#ff9400" stroke="#000000" stroke-width="2" stroke-linecap="round"/><g fill="#000000" stroke="none" stroke-width="0" stroke-linecap="butt"><path d="M269.91104,150.67393c-0.83695,7.047 -14.38715,11.23099 -30.2652,9.3452c-15.87805,-1.88579 -28.07127,-9.12725 -27.23433,-16.17425c0.83695,-7.047 14.38715,-11.23099 30.2652,-9.3452c15.87805,1.88579 28.07127,9.12726 27.23433,16.17425z"/><path d="M222.86668,141.31934l4.1051,-34.56432l39.40979,4.68058l-4.1051,34.56433z"/></g></g></g></svg>